<svg width="32" height="44" viewBox="0 0 32 44" fill="none" xmlns="http://www.w3.org/2000/svg">
<path d="M20.94 43.24C13.46 43.24 7.92 41.12 4.32 36.88C3.04 35.36 2 33.34 1.2 30.82C0.4 28.3 4.47035e-08 25.24 4.47035e-08 21.64C4.47035e-08 18.04 0.58 14.82 1.74 11.98C2.94 9.1 4.56 6.88 6.6 5.32C10.56 2.4 15.34 0.939998 20.94 0.939998C22.54 0.939998 24.1 1.08 25.62 1.36C27.14 1.6 28.28 1.86 29.04 2.14L30.12 2.56L29.94 3.16C27.22 2.08 24.22 1.54 20.94 1.54C16.7 1.54 13.16 2.92 10.32 5.68C8.16 7.72 6.64 10.72 5.76 14.68C5.24 16.92 4.98 19.66 4.98 22.9C4.98 26.14 5.44 29.14 6.36 31.9C7.28 34.62 8.32 36.64 9.48 37.96C10.68 39.28 12.12 40.34 13.8 41.14C15.48 41.9 16.82 42.34 17.82 42.46C18.82 42.58 20.02 42.64 21.42 42.64C22.86 42.64 24.48 42.5 26.28 42.22C28.08 41.94 29.44 41.68 30.36 41.44L31.74 41.02L31.92 41.62C28.88 42.7 25.22 43.24 20.94 43.24Z" fill="white"/>
</svg>
