<?xml version="1.0" encoding="utf-8"?>
<!-- Generator: Adobe Illustrator 27.1.1, SVG Export Plug-In . SVG Version: 6.00 Build 0)  -->
<svg version="1.1" id="Layer_1" xmlns="http://www.w3.org/2000/svg" xmlns:xlink="http://www.w3.org/1999/xlink" x="0px" y="0px"
	 viewBox="0 0 1080 1080" style="enable-background:new 0 0 1080 1080;" xml:space="preserve">
<g transform="translate(0.000000,1080.000000) scale(0.100000,-0.100000)">
	<path d="M4414,8904c-71-35-96-89-82-179c6-37,16-58,42-84c31-30,43-35,96-39c45-3,72,0,101,13c34,16,39,22,39,50c0,18-3,47-6,64
		c-6,29-9,31-50,31c-37,0-44-3-44-20c0-16,7-20,30-20c26,0,30-3,30-29c0-33-13-46-56-55c-37-8-90,11-118,42c-43,49-27,151,29,188
		c25,16,97,16,136,0c10-5,19-1,22,8C4598,8913,4476,8935,4414,8904z"/>
	<path d="M5054,8903c-39-8-66-47-62-89c3-34,9-43,53-71c85-54,91-67,54-104c-16-16-27-19-52-14c-18,4-39,13-48,21c-19,17-35,18-45,3
		c-3-6,6-22,22-35c22-18,42-23,81-24c45,0,54,4,77,31c48,57,33,102-49,148c-49,28-56,35-53,59c4,38,48,52,87,29c36-21,51-22,51-2
		C5170,8884,5100,8913,5054,8903z"/>
	<path d="M4125,8848c3-13,12-54,20-93c9-38,18-78,21-87c3-10,1-18-3-18c-5,0-58,40-117,89c-107,88-144,104-132,57c3-11,17-75,32-141
		c30-138,34-147,53-135c12,7,11,24-8,110c-13,55-21,103-18,107c5,4,60-39,210-166c31-26,43-1,29,61c-54,238-54,238-73,238
		C4124,8870,4121,8865,4125,8848z"/>
	<path d="M5364,8822c-56-35-79-79-79-149c0-72,20-108,78-136c114-57,227,17,227,147c0,61-13,89-55,122
		C5487,8843,5409,8850,5364,8822z M5509,8774c40-33,49-81,26-140c-20-53-53-78-102-76c-96,4-137,108-79,197
		C5387,8806,5461,8815,5509,8774z"/>
	<path d="M3680,8738c0-7,22-74,48-148c39-111,51-135,67-135c25,0,25,0-32,163c-37,106-49,132-64,132C3688,8750,3680,8744,3680,8738z
		"/>
	<path d="M5786,8722c-21-34-106-276-100-282c19-19,147-61,157-51c15,15,2,27-50,46c-26,10-51,21-55,24c-4,4,14,63,41,131
		c27,69,47,128,44,133C5817,8732,5793,8732,5786,8722z"/>
	<path d="M3484,8666c-3-8,15-58,39-110c25-53,41-96,35-96s-62,27-125,60c-110,57-153,71-153,51c0-19,129-281,139-281
		c24,0,19,27-23,117c-26,53-44,98-42,100c2,3,61-25,131-60c111-57,163-73,153-47c-25,63-134,280-140,280
		C3493,8680,3487,8673,3484,8666z"/>
	<path d="M6021,8516c-37-68-51-104-51-133c0-98,125-160,198-98c36,30,126,191,118,211c-12,31-34,10-82-78c-29-53-61-99-76-107
		c-44-25-101,3-114,56c-5,18,6,50,45,124c29,55,49,104,46,109C6090,8625,6068,8603,6021,8516z"/>
	<path d="M3067,8439c-34-9-117-61-117-73c0-11,149-244,161-252c5-3,16-1,24,3c12,7,9,18-21,62c-33,48-35,55-20,69c14,14,22,13,85-12
		c69-27,111-31,118-11c2,6-31,23-72,39c-70,27-74,30-63,50c17,30,11,77-13,102C3124,8443,3103,8449,3067,8439z M3118,8388
		c21-21,14-66-15-93c-15-14-32-25-38-25c-9,0-65,80-65,93c0,11,55,36,81,37C3095,8400,3111,8395,3118,8388z"/>
	<path d="M6410,8405c-9-11-4-19,29-41c23-15,41-29,41-33c-1-3-36-55-80-116c-69-97-77-111-63-122c9-7,19-10,24-8c4,3,40,52,81,110
		c40,58,77,105,82,105s25-12,44-26c28-22,36-24,43-13c10,16-6,31-117,109C6434,8411,6420,8417,6410,8405z"/>
	<path d="M2705,8186c-17-12-15-21,35-172c29-87,54-161,57-163c2-3,10,2,18,10c14,13,14,20,1,57l-15,42l40,38c57,52,64,55,98,37
		c33-17,67-20,75-6c8,12-3,20-155,99C2740,8191,2721,8198,2705,8186z M2809,8108c31-17,58-33,60-35c2-1-13-18-35-37
		c-21-19-42-31-45-28c-10,11-48,132-42,132C2750,8140,2778,8126,2809,8108z"/>
	<path d="M6630,8064c-80-93-98-120-88-131c6-7,14-12,18-11c4,2,51,54,104,116c89,103,110,142,77,142C6735,8180,6686,8128,6630,8064z
		"/>
	<path d="M2436,7928c-30-35-56-67-57-72c0-4,50-55,112-111l113-103l61,65c69,76,72,81,51,89c-10,4-31-11-63-46l-48-52l-40,35l-39,34
		l42,48c29,33,39,52,32,59s-24-3-54-33l-44-43l-36,28c-20,16-36,33-36,37s20,30,45,56s45,53,45,60C2520,8005,2488,7986,2436,7928z"
		/>
	<path d="M6848,7978c-42-11-114-82-124-122c-16-63,30-147,99-183c96-49,242,66,222,175C7028,7940,6936,8001,6848,7978z M6973,7912
		c12-13,22-38,25-70c4-44,1-52-28-85c-54-62-130-69-175-15c-47,56-33,128,35,175C6873,7947,6940,7944,6973,7912z"/>
	<path d="M7063,7603c-79-56-120-90-116-99c8-22,20-17,110,47c47,33,87,58,90,55s-14-66-38-141c-30-96-39-139-32-146
		c8-8,47,14,134,76c68,47,125,90,127,96c2,5-3,12-11,15s-51-20-100-55c-48-33-88-57-90-53s15,66,38,137c41,126,45,156,21,154
		C7190,7689,7130,7650,7063,7603z"/>
	<path d="M2177,7613c-4-3-7-10-7-14c0-14,251-192,259-183c38,43,92,128,87,140c-9,23-21,16-55-31c-17-24-36-47-42-50
		c-5-4-56,28-113,69C2203,7619,2190,7626,2177,7613z"/>
	<path d="M7358,7284c-33-17-43-49-34-109c9-57-5-85-44-85c-37,0-60,32-60,82c0,31-4,38-20,38s-20-7-20-35c0-100,94-159,164-104
		c25,20,27,26,25,96c-2,77,5,92,42,93c23,0,41-25,48-68c4-25,12-38,25-40c17-4,18,1,14,43C7488,7280,7425,7321,7358,7284z"/>
	<path d="M1919,7169c-22-45-39-83-36-85c8-8,279-135,282-132c11,13,75,151,75,163c0,8-7,15-16,15c-10,0-26-23-42-60
		c-15-33-32-60-39-60c-17,0-83,32-83,41c0,3,9,27,21,53c19,43,19,66,0,66c-4,0-18-23-31-51c-22-45-27-50-49-44c-15,4-36,13-49,21
		l-22,14l30,60c34,67,36,80,15,80C1967,7250,1943,7216,1919,7169z"/>
	<path d="M1810,6910c0-21,31-51,134-136c57-46,59-49,35-55c-13-4-55-8-94-8c-103-2-144-11-156-34c-11-19-9-20,112-13
		c133,8,209,15,222,23c21,13-4,46-94,123c-55,47-109,93-119,103C1825,6936,1810,6935,1810,6910z"/>
	<path d="M7242,6587c-12-14-13-52-5-749c3-358,2-518-6-518c-6,0-15,17-20,38c-5,20-58,224-116,452c-59,228-124,484-145,568
		s-46,164-55,178l-16,25l-152-7c-87-4-158-11-166-18c-12-9-13-57-7-291c3-154,10-489,16-745c16-768,21-892,35-927l14-33h86
		c82,0,88,1,115,29l29,29l-5,168c-2,93-9,295-14,449c-18,499-22,823-11,830c6,3,13-7,17-22c12-50,80-312,173-665
		c51-191,96-369,101-395c5-27,22-95,39-153c16-58,35-131,41-163c7-33,21-68,32-79c19-19,29-20,136-15c65,4,120,12,129,18
		c12,11,13,56,9,298c-3,157-10,336-15,398c-5,61-6,280-3,487c4,342,3,376-12,382c-20,8-21,24-1,24c11,0,15,12,16,40c1,22,2,64,4,93
		c3,87-12,257-25,272C7444,6605,7258,6607,7242,6587z"/>
	<path d="M6110,6577l-35-12l-7-160c-7-137-6-162,7-171c12-9,14-21,9-50c-10-54-12-162-18-928c-4-440-2-675,5-687c8-15,21-19,68-19
		c54,0,59,2,54,20c-3,11-3,20,1,20c3,0,15-9,26-20c25-25,74-26,98-2c17,17,19,45,22,363c8,856,5,1628-7,1640
		C6316,6588,6154,6593,6110,6577z M6280,6336c0-11-19-15-25-6c-3,5,1,10,9,10C6273,6340,6280,6338,6280,6336z M6190,6240
		c0-5-5-10-11-10c-5,0-7,5-4,10c3,6,8,10,11,10C6188,6250,6190,6246,6190,6240z"/>
	<path d="M5041,6561c-20-20-21-31-22-343c-2-447-1-631,1-643c1-5,2-12,1-15c-6-25-4-500,2-500c5,0,6-8,3-17c-14-46,0-471,16-490
		c7-9,44-13,119-13c98,0,111,2,130,21c17,17,20,29,15,58c-3,20-9,201-12,402c-5,274-4,368,5,373c32,20,47-6,113-197
		c165-476,211-604,231-631l20-29l97,7c124,9,154,17,158,43c4,27-42,162-126,368c-109,270-182,458-182,471c0,7,15,22,33,33
		c48,30,131,120,157,172c43,82,52,136,57,332c8,287-17,401-108,502c-30,32-73,65-107,82l-57,28l-262,3
		C5070,6581,5061,6581,5041,6561z M5519,6295c17-15,39-50,51-82c19-50,21-79,22-259c0-201,0-204-23-229c-42-45-94-66-184-72
		c-67-5-85-3-89,8c-2,8-7,159-9,337l-5,322h103C5481,6320,5491,6318,5519,6295z"/>
	<path d="M4188,6561c-61-12-68-24-68-110c0-42,4-125,10-186c5-60,11-380,13-709c4-539,6-601,21-611c20-15,21-25,2-25
		c-12,0-14-28-13-167l2-167l25-13c30-15,614-19,654-4c20,8,26,19,32,57c5,38,4,48-10,56c-21,12-21,30,2,26c14-3,17,4,14,42
		c-2,26-10,50-20,58c-11,9-72,12-218,12c-112,0-205,4-208,9c-4,5-8,85-10,178c-2,92-7,176-11,186c-4,9-4,29-1,43c5,17,3,23-4,19
		c-5-3-10,0-10,9c0,8,5,16,12,18c8,3,12,36,14,95c1,51,5,96,8,101c3,6,70,11,153,11c185,2,183,1,183,120c0,133,3,131-189,131h-158
		l-7,218c-4,119-12,235-17,256c-7,25-7,41-1,45c6,3,12,17,13,31l4,25l203,5c243,6,232,0,232,128c0,132,25,121-295,121
		c-247,0-275-1-275-16s-2-15-18,0c-10,10-20,16-23,16C4227,6568,4208,6564,4188,6561z"/>
	<path d="M1684,6495c-4-9-4-19-1-22c4-3,64-19,134-34c70-16,138-31,149-34c16-3,23,1,27,15c6,22,4,23-168,60c-55,12-108,24-118,26
		C1697,6509,1687,6505,1684,6495z"/>
	<path d="M1645,6298c-4-16-25-188-25-211c0-21,26-22,34-1c3,9,6,29,6,45c0,26,3,29,33,29c17,0,79-7,137-15c106-14,119-11,120,21
		c0,6-42,16-102,23c-57,7-120,15-141,18l-37,6l6,48c6,42,4,49-10,49C1657,6310,1648,6304,1645,6298z"/>
	<path d="M1752,5921c-206-81-204-84,126-214l42-17v24c0,18-9,27-40,39l-40,15v69v70l42,19c45,20,65,55,31,53
		C1903,5978,1831,5952,1752,5921z M1808,5845c5-56-7-61-77-34c-34,13-61,26-61,30c0,7,113,48,125,45C1801,5885,1806,5866,1808,5845z
		"/>
	<path d="M1904,5521l6-78l-46-7c-57-7-64-3-64,37c0,47-11,77-27,77c-11,0-13-14-11-62l3-63l-44-3c-51-4-60,5-62,63
		c-2,60-11,86-28,76c-12-8-13-24-4-96c6-47,13-88,16-91c2-3,73,3,157,13l152,17l-6,66c-11,105-17,130-34,130
		C1899,5600,1898,5588,1904,5521z"/>
	<path d="M1914,5233c-26-32-49-60-51-62c-1-2-16,8-33,23c-35,29-46,31-86,16c-54-21-65-61-42-159c7-31,17-51,25-51
		c12,0,133,29,256,61c27,7,37,15,37,29c0,24,0,24-69,5c-30-8-58-12-63-9c-19,12-5,46,42,101c51,60,56,69,41,91
		C1965,5288,1950,5276,1914,5233z M1828,5147c7-8,15-28,18-44c6-30,5-31-46-43c-63-15-72-8-68,51c2,34,8,46,27,56
		C1785,5179,1807,5173,1828,5147z"/>
	<path d="M2010,4911c0-10,7-21,14-24c26-10,49-67,42-105c-14-91-138-135-205-73c-27,25-31,36-31,79c0,34-5,52-14,55
		c-21,8-26-2-26-51c0-85,70-162,147-162c46,0,130,45,153,82c35,57,23,137-28,191C2032,4934,2010,4938,2010,4911z"/>
	<path d="M4455,4529c-80-12-159-52-218-111c-36-36-47-53-42-68s2-20-11-20c-14,0-16-7-10-42s5-41-5-30c-7,6-16,12-21,12
		c-14,0-26-75-33-202c-7-126-7-128,14-128c25,0,28-15,4-28c-14-9-16-56-21-483c-6-659,2-719,114-839c84-90,200-127,359-115
		c175,13,287,101,345,270c18,52,18,60,5,68c-19,10-20,37-1,37s26,23,26,89c0,35-6,65-16,79c-14,20-23,22-125,22c-108,0-110,0-119-26
		c-14-35-13-77,2-92c9-9,9-15,0-24s-8-16,5-30c15-17,15-18-1-18c-10,0-19-11-22-29c-18-89-171-131-250-69c-54,43-55,53-55,515
		c0,318-3,429-12,444s-9,21-1,27c8,5,13,74,15,222c4,194,6,218,24,250c53,91,206,93,258,2c12-21,21-60,24-115c8-121,4-117,132-117
		c75,0,112,4,119,13c13,16,15,120,2,112c-14-8-13,28,1,42c8,8,8,17-1,32c-6,12-9,25-6,30c10,15-33,125-70,178
		C4786,4501,4630,4555,4455,4529z"/>
	<path d="M8529,4515c-78-16-109-30-166-79c-89-77-123-204-126-466c-1-152,1-180,16-203c21-32,21-37,2-37c-13,0-15-29-16-197
		c-4-585,5-770,41-847c24-49,115-156,135-156c7,0,32-11,56-24c127-71,368-53,485,36c23,18,53,50,66,71s30,47,39,57
		c9,11,24,57,34,103c14,70,16,130,13,407c-7,577-20,994-31,1015c-6,11-12,39-13,62c-2,51-36,112-100,176
		C8878,4519,8710,4551,8529,4515z M8730,4288c83-26,85-44,96-958c6-483,5-528-10-559c-40-76-197-83-261-11c-19,20-20,41-26,280
		c-5,211-9,264-23,291c-13,26-14,39-6,59c8,21,9,490,1,625c-3,38,17,182,27,201c18,34,51,57,99,70C8688,4302,8684,4302,8730,4288z"
		/>
	<path d="M7514,4506c-68-17-131-55-181-109c-45-49-83-115-83-145c0-10-5-23-12-30c-21-21-14-206,12-287c32-101,111-254,193-375
		c192-281,282-431,328-547c72-179,12-318-129-299c-101,14-133,58-141,198c-8,131-9,132-148,129c-135-3-139-5-135-104
		c10-265,110-413,315-463c84-20,227-15,277,10c18,9,39,16,47,16c7,0,31,17,54,37c33,30,40,42,37,65c-4,21,0,28,12,28
		c10,0,28,10,42,23c55,51,71,287,28,407c-44,126-141,298-306,545c-173,259-213,330-238,426c-23,89,5,182,67,219c43,27,118,26,167-1
		c55-31,70-64,70-152c0-108,11-119,110-107c45,5,82,5,92-1c24-13,54,4,62,35c3,13,1,70-4,127c-8,80-16,116-37,158
		c-35,69-104,140-163,169C7763,4520,7620,4532,7514,4506z M7935,4131c3-5,1-12-5-16c-5-3-10,1-10,9C7920,4142,7926,4145,7935,4131z"
		/>
	<path d="M9992,4508c-13-17-14-130-6-755c4-327,3-513-3-513s-45,136-88,303c-43,166-106,410-140,542s-70,271-79,309
		c-25,109-23,107-200,100c-83-4-157-11-164-17c-14-11-13-181,7-1062c18-802,21-876,37-907c14-27,16-28,100-28c81,0,87,2,115,29
		l29,29l-5,174c-3,95-10,297-15,448c-17,481-22,830-11,830c6,0,14-17,19-37c5-21,55-211,110-423c56-212,116-443,133-515
		c17-71,44-175,60-230s34-127,40-160c16-88,33-123,65-131c38-10,235,3,248,16s10,351-6,575c-6,88-10,348-9,578c2,374,1,417-13,417
		c-9,0-16,5-16,10c0,6,6,10,14,10c9,0,16,17,20,48c8,65-2,299-15,340l-11,32h-103C10035,4520,9999,4516,9992,4508z"/>
	<path d="M6231,4481c-20-20-21-32-23-338c-3-805-3-1163,3-1165c3-2,3-32-2-68c-4-35-6-67-4-71c3-3,7-84,11-180c3-96,11-180,16-187
		c11-13,214-17,234-4c26,17,29,48,22,224c-13,366-11,610,3,619c19,12,26,11,36-3c9-15,128-346,218-607c34-101,72-195,83-210
		c18-24,24-26,98-25c109,1,174,12,181,31c8,22-43,165-189,528l-128,320l27,20c58,42,150,142,172,188c40,83,51,146,57,327
		c12,344-45,499-214,582l-66,33l-258,3C6260,4501,6251,4501,6231,4481z M6689,4226c32-17,51-43,74-106c13-36,17-85,18-248l1-204
		l-34-30c-57-51-86-61-178-62l-85-1l-7,65c-5,50-11,479-8,583c0,15,11,17,95,17C6629,4240,6670,4235,6689,4226z"/>
	<path d="M5375,4480c-9-15-32-153-80-490c-25-173-47-327-50-342c-3-20,0-28,10-28c19,0,19-10-1-24c-19-14-29-59-59-265
		c-18-121-22-168-14-178c8-9,7-22-5-47c-31-65-85-431-69-461c7-12,4-27-9-53c-44-88-14-114,128-110c94,3,99,4,110,28
		c7,14,22,102,34,195c11,94,26,197,33,230l12,60l147,3l147,3l5-33c14-98,36-260,41-308c10-85,33-158,55-170c24-13,186-13,211,0
		c11,7,19,21,19,37c0,30-38,321-105,793c-24,173-58,430-75,570s-39,310-50,378c-11,67-20,133-20,146s-9,35-21,50l-20,26h-184
		C5457,4490,5379,4486,5375,4480z M5599,4015c6-38,18-142,26-230c9-88,27-243,41-344c13-101,23-185,22-187c-6-5-228-7-234-2
		c-5,6,0,47,41,353c9,74,11,113,4,121c-7,9-5,27,6,59c8,26,24,101,36,168c11,67,23,138,26,157l6,35l8-30
		C5585,4099,5593,4054,5599,4015z"/>
</g>
</svg>
